/* XPM */
static char *_fd0893dfa674aa8e236276e5e6ca836MJPJKG7ReXbkKMmh[] = {
/* columns rows colors chars-per-pixel */
"32 32 161 2 ",
"   c #EEBE3E",
".  c #F3BE3F",
"X  c #EEC03F",
"o  c #F1C03E",
"O  c #EFBE44",
"+  c #EDBD4D",
"@  c #F3BE44",
"#  c #F3BD49",
"$  c #E6BE56",
"%  c #EDBD53",
"&  c #E3BC5B",
"*  c #EBBE5B",
"=  c #F4BD51",
"-  c #F6BF5A",
";  c #DFBD63",
":  c #E4BE64",
">  c #EABD63",
",  c #E3BE6D",
"<  c #E8BE6C",
"1  c #E4BE73",
"2  c #E6BF7C",
"3  c #EEC143",
"4  c #ECC04C",
"5  c #F1C042",
"6  c #F3C149",
"7  c #ECC152",
"8  c #E5C25B",
"9  c #EBC25C",
"0  c #F3C351",
"q  c #DBC164",
"w  c #DFC169",
"e  c #DFC179",
"r  c #E6C163",
"t  c #EAC061",
"y  c #E4C16C",
"u  c #E7C271",
"i  c #ECC575",
"p  c #E7C876",
"a  c #EAC974",
"s  c #E7C57D",
"d  c #EAC47C",
"f  c #EDCA78",
"g  c #F1C77B",
"h  c #E5C383",
"j  c #E5CA83",
"k  c #EBCF84",
"l  c #E9C68C",
"z  c #E6CA88",
"x  c #ECCD8C",
"c  c #F4CE85",
"v  c #EED585",
"b  c #EFD28C",
"n  c #EECE95",
"m  c #EDD599",
"M  c #F5DA93",
"N  c #F2D59B",
"B  c #FCDC9B",
"V  c #F7E39C",
"C  c #FAE19F",
"Z  c #F0D5A0",
"A  c #F3DAA3",
"S  c #F4DDA9",
"D  c #FCDCA9",
"F  c #FEE3A4",
"G  c #FEE3AC",
"H  c #FFE9AC",
"J  c #FFE3B1",
"K  c #FEEBB4",
"L  c #FFEFBE",
"P  c #FFF4BA",
"I  c #FFEDC3",
"U  c #FFF4C4",
"Y  c #FFF8C6",
"T  c #FFF4CC",
"R  c #FFFACF",
"E  c #FFF6D3",
"W  c #FFFBD4",
"Q  c #FFFDDF",
"!  c #FFFDDB",
"~  c #FFFBE2",
"^  c #FFFEE1",
"/  c #FFFCE2",
"(  c #FFFDE3",
")  c #FFFEE2",
"_  c #FFFEE3",
"`  c #FFFFE3",
"'  c #FFF9E4",
"]  c #FFFEE4",
"[  c #FFFDE6",
"{  c #FFFFE6",
"}  c #FFFEE4",
"|  c #FFFCE9",
" . c #FFFEE8",
".. c #FFFEE9",
"X. c #FFFEEB",
"o. c #FFF9EC",
"O. c #FFFBEE",
"+. c #FFFDEC",
"@. c #FFFEEC",
"#. c #FFFFEC",
"$. c #FFFFEF",
"%. c #FFFEEB",
"&. c #F6FDF6",
"*. c #FFFCF1",
"=. c #FFFDF1",
"-. c #FFFEF2",
";. c #FFFFF3",
":. c #FFFBF6",
">. c #FFFDF4",
",. c #FFFEF4",
"<. c #FFFFF4",
"1. c #FDFCF7",
"2. c #FFFFF6",
"3. c #FFFEF4",
"4. c #FFF7F8",
"5. c #FEFDF8",
"6. c #FFFDF8",
"7. c #FFFCF9",
"8. c #FDFEF9",
"9. c #FFFFF8",
"0. c #FCFCFA",
"q. c #FDFDFB",
"w. c #FEFDFB",
"e. c #FDFFFA",
"r. c #FCFEFB",
"t. c #FCFFFB",
"y. c #FFFEFA",
"u. c #FEFFFA",
"i. c #FFFFFA",
"p. c #FFFEFB",
"a. c #FEFFFB",
"s. c #FFFFFB",
"d. c #FAFFFC",
"f. c #FBFFFD",
"g. c #F9FDFF",
"h. c #FBFFFE",
"j. c #FAFEFF",
"k. c #FBFFFF",
"l. c #FDFDFD",
"z. c #FEFCFD",
"x. c #FDFFFC",
"c. c #FCFFFD",
"v. c #FEFEFC",
"b. c #FFFEFC",
"n. c #FFFEFD",
"m. c #FEFFFD",
"M. c #FFFFFD",
"N. c #FCFDFF",
"B. c #FDFDFF",
"V. c #FFFDFE",
"C. c #FFFCFF",
"Z. c #FFFDFF",
"A. c #FDFFFE",
"S. c #FDFEFF",
"D. c #FCFFFF",
"F. c #FEFEFE",
"G. c #FEFEFF",
"H. c #FFFEFF",
"J. c #FEFFFF",
"K. c white",
"L. c #FEFEFD",
/* pixels */
"s.s.k.k.g.v.v.v.v.v.C.v.v.v.s.s.2.2.v.v.v.v.v.v.v.v.v.v.v.v.v.v.",
"s.v.k.k.v.v.v.v.v.v.2.@.` ` ` E E E ~ | | | 2.v.v.v.v.v.v.v.v.v.",
"v.k.v.v.v.v.v.v.v.o.W P M p : t : r < d B T ` *.v.v.k.&.v.v.v.v.",
"v.v.v.v.v.s.2.-.` Y j q 8 4 # 5 5 5 # - * , N R @.s.s.k.v.v.v.v.",
"v.v.v.v.v.2.@.E M > % % O # O @ o 5 @ # = % 8 y J ~ s.v.v.t.v.v.",
"v.v.v.v.s.| W x & 6 # @ @ @ @ 5 X 5 @ @ @ @ 3 7 , D ' :.s.s.v.v.",
"v.v.v.v.o.! v & % # # @ @ # # @ 6 O # 6 @   O 4 = : G ~ -.s.k.k.",
"v.v.v.2.` Z : 6 # # # # @ @ # # # O 5 5 . 5 5 O # % 1 K @.s.s.k.",
"v.k.v.-.L , % # @ @ 3 5 5 . @ # @ @ @ @ . @ o 3 + + % a W 1.v.v.",
"k.v.v.] b * = @ @ X O @ o o @ @ # @ . 5 @ @ o 5 @ 6 @ 9 J @.v.v.",
"s.2.-.T : + # @ . @ @ @ @ . 3 @ # # @ . @ @ @ @ @ # # % j W 2.v.",
"t.2.| S & @ # # . @ @ @ @ @ X 5 # # @ @ @ # @ @ @ # # = w P @.v.",
"v.2.Q l * @ @ @ . o @ @ # @ @ 5 # # . . . 5 @ @ @ . 5 4 8 V | v.",
"v.@.E 2 0 @ @ @ o o @ # # # @ @ # @ . . @ @ @ @ @ 5 5 O 7 v | v.",
"v.@.Y 1 %     o . @ @ 6 3 @ @ @ 5 5 @ @ @ @ # # # @ @ @ # f ] k.",
"s.@.U , 7 3 5 5 @ @ # @ @ @ @ @ . 5 @ @ @ @ # # # @ @ # = i ` s.",
"v.@.U , 4 5 @ @ # @ @ @ @ @ @ @ @ @ @ @ 5 # # # @ 5 5 @ = d ` s.",
"v.-.R 1 7   @ 5 @ @ @ # # @ @ @ @ @ @ @ @ @ @ @ 5 @ @ 6 % c ` s.",
"k.2.! h 8 O # # . . @ @ @ # @ 5 o 5 @ # @ @ o @ @ @ @ = t M ] s.",
"k.s.| Z 9 5 # @ o @ @ @ @ @ 5 o o 5 @ @ @ @ o o @ # # = y K @.v.",
"s.2.-.I & 5 5 3 o o @ # 5 X o X 5 5 @ @ @ @ . . @ O @ * e W 2.v.",
"2.2.v.E a 4 4 5 5 5 # # 5 X 5 @ # # 3 @ # @ @ . X 5 # & A ] s.v.",
"s.s.v.@.F y % @ @ # @ @ @ @ # # # # @ @ . . @ @ @ # % i E *.s.s.",
"t.v.v.:.! z t # # @ # @ @ @ # # # # # 5 . . @ # # = : F | s.s.s.",
"k.v.v.4.2.E s * # @ @ @ @ @ # O @ @ . . . @ # # # 8 n Q -.k.v.v.",
"v.v.v.v.v.@.L 2 - # O 5 @ @ O O 5 @ . @ . # = * 9 k ! *.s.v.v.k.",
"v.v.k.k.v.2.@.T s t + @ 3 3 6 6 @ @ @ # # # $ : m ! @.s.v.v.k.v.",
"v.v.v.v.k.v.s.| E B r & 7 4 + 7 4 0 % % * > p H ` o.s.v.C.v.v.k.",
"v.v.v.v.v.v.s.-.@.] R A j y r t r & r u z K ! | 2.2.v.v.v.v.v.k.",
"v.v.v.v.v.k.t.s.v.v.2.~ W P H F C F K Y ! | 2.v.s.v.v.v.v.v.v.v.",
"s.s.v.k.v.v.v.v.v.v.v.s.-.@.@.@.| | @.-.s.v.v.v.s.v.v.v.v.v.v.v.",
"-.s.k.k.k.v.v.v.v.v.v.v.v.v.v.v.v.v.v.v.v.v.v.v.C.v.v.k.v.v.v.v."
};
