/* XPM */
static char *_43898875496493cbb0942d732f44957GJmMaCO8NW8H1p93[] = {
/* columns rows colors chars-per-pixel */
"32 32 153 2 ",
"   c #010102",
".  c #00010C",
"X  c #000114",
"o  c #00011C",
"O  c #000223",
"+  c #00042C",
"@  c #000432",
"#  c #000A35",
"$  c #000739",
"%  c #000E3C",
"&  c #001037",
"*  c #00103F",
"=  c #011342",
"-  c #00164B",
";  c #00194F",
":  c #021C55",
">  c #0A1E50",
",  c #0C2557",
"<  c #0C2462",
"1  c #092964",
"2  c #0B2B6B",
"3  c #132A60",
"4  c #17316E",
"5  c #0E3275",
"6  c #113277",
"7  c #183577",
"8  c #193976",
"9  c #14367D",
"0  c #183A7A",
"q  c #23427B",
"w  c #29437F",
"e  c #163A86",
"r  c #183C86",
"t  c #213F81",
"y  c #203F8F",
"u  c #1E4391",
"i  c #254581",
"p  c #2A4583",
"a  c #2B4985",
"s  c #274B89",
"d  c #284A8A",
"f  c #224793",
"g  c #224C9E",
"h  c #284E99",
"j  c #2B5094",
"k  c #2C549A",
"l  c #32539D",
"z  c #2C55AB",
"x  c #2C5CAE",
"c  c #345BA3",
"v  c #3B5BA3",
"b  c #325CAD",
"n  c #2E5CB3",
"m  c #2D5CBC",
"M  c #3357B7",
"N  c #335BB3",
"B  c #385EB1",
"V  c #315BBA",
"C  c #3760A0",
"Z  c #3160B5",
"A  c #3460B8",
"S  c #405F98",
"D  c #265DC6",
"F  c #2A5DC4",
"G  c #265DCB",
"H  c #295CCB",
"J  c #315BC3",
"K  c #255CD0",
"L  c #295ED0",
"P  c #2360C7",
"I  c #2A60C3",
"U  c #2660CB",
"Y  c #3361C3",
"T  c #899FD6",
"R  c #8EA6CC",
"E  c #90A1CC",
"W  c #85A1D4",
"Q  c #89A2D7",
"!  c #8BA2DA",
"~  c #B9CBEF",
"^  c #BBCEF5",
"/  c #B8CFF8",
"(  c #BACEF8",
")  c #BCCDF9",
"_  c #BDCDFE",
"`  c #BDCEFC",
"'  c #BCD1F0",
"]  c #BBD1F8",
"[  c #BED0F8",
"{  c #BBD0FF",
"}  c #C1CFEC",
"|  c #D5E2F3",
" . c #DFEFFF",
".. c #DEF2FF",
"X. c #E3ECFF",
"o. c #E2EFFF",
"O. c #E3EFFF",
"+. c #E2F1FF",
"@. c #E3F2FF",
"#. c #E7F0FF",
"$. c #E7F1FF",
"%. c #E4F2FF",
"&. c #E3F1FF",
"*. c #E9F0FF",
"=. c #FFFFF7",
"-. c #F4F7FF",
";. c #FFF7FF",
":. c #F2FDFF",
">. c #F3FDFF",
",. c #F2FEFF",
"<. c #F3FEFF",
"1. c #F2FFFF",
"2. c #F3FFFF",
"3. c #F4FEFF",
"4. c #F4FFFF",
"5. c #F5FFFF",
"6. c #F7FEFF",
"7. c #F6FFFF",
"8. c #F7FFFF",
"9. c #F4FEFF",
"0. c #FFFEF9",
"q. c #FFFFFB",
"w. c #FFFBFF",
"e. c #FBFFFC",
"r. c #F8FCFF",
"t. c #F8FDFF",
"y. c #FBFCFE",
"u. c #FAFCFF",
"i. c #FBFDFF",
"p. c #F8FEFF",
"a. c #F9FEFF",
"s. c #F8FFFF",
"d. c #F9FFFF",
"f. c #FBFEFF",
"g. c #FBFFFF",
"h. c #FEFEFC",
"j. c #FFFFFD",
"k. c #FCFCFF",
"l. c #FDFCFF",
"z. c #FCFDFF",
"x. c #FEFCFF",
"c. c #FFFCFF",
"v. c #FEFDFF",
"b. c #FFFDFF",
"n. c #FDFFFE",
"m. c #FCFEFF",
"M. c #FDFEFF",
"N. c #FCFFFF",
"B. c #FEFEFE",
"V. c #FFFEFF",
"C. c #FEFFFF",
"Z. c white",
"A. c #FDFEFE",
/* pixels */
"=.q.j.w.f.f.6.6.k.6.:.:.6.6.6.f.6.f.6.6.:.6.6.6.f.f.:.6.6.j.j.w.",
"q.j.j.-.} ~ ~ ] ` _ _ / ( [ ^ ^ ( ) ^ ^ ] [ ^ ] ^ ^ / ' | f.j.w.",
"j.f.j.@.l n Z n N N N n N B N b N N N N N N V N N M b C R :.f.j.",
"j.f.f. .A U D D F F I I F H G D H D D D V J J J F F D x W :.f.j.",
"f.j.j.O.Z D I F m m m I H H G G D U D V h i 0 f N F P Z Q :.j.j.",
"j.j.w.O.b F m z r 7 5 u V H G G D F I g ; + O # 9 n P n Q :.f.j.",
"k.j.j.X.B F b 7 # o o = y J D D L D N 2 o   . X $ l m n ! :.6.j.",
"j.w.j.$.z Y l $ X     X < N F D G D N - X     . o a m m Q :.6.f.",
"j.j.k.o.b m d + .     X % b F D G m c = X     . O w V F T 6.f.j.",
"j.f.j.@.b m a O .     . $ c I D D m c & X .   . o p V V ! r.f.j.",
"j.f.j.@.N m p O .     . @ v F G G F b * X       o p V V ! :.f.j.",
"f.f.j.&.N J p O .     . $ v m U H m C * X     . O q V N Q :.f.j.",
"f.j.w.o.N m d O .     . $ v m D H V b = X     . O w V N T 6.f.q.",
"f.j.j.@.x m k % o .   o : b m D H F N < o   . X + j m V ! :.f.q.",
"j.j.j.o.b F n 6 + o o # e m F G G D F u # X X O 2 x F n Q :.f.j.",
"j.j.j. .B D F z 8 , 3 t n D G G G D H n i , > 4 z I D V Q 6.f.j.",
"j.j.j. .b H D D m n n m H H G K G G H F m M N V D H G V T 6.j.j.",
"j.j.j.@.b H H G U D U G H H K G D G G D H H G G K H H n T 6.f.j.",
"f.j.f.o.N H L G G G G G D D G D K U G K G G L G H G H N Q :.f.q.",
"f.f.j.o.N H H G K G G D D D G G G G G K G H G H G H H N Q :.f.q.",
"j.f.j. .N H H H G G U D F H H H G G H G H D D D D F G N Q :.f.j.",
"j.j.j.o.N H F D G G D D H H H H L G H H D D D G D D D N Q :.f.j.",
"j.w.w.o.M H H G L G D D H K G G H G G G H D H H G G H V ! 6.j.j.",
"j.w.j.o.N G H H L G H D G K G U G G G G H H H L K G G n Q :.j.j.",
"w.j.f...b D D G H H H F L G G P P D G G H H L L G U D n Q 1.6.j.",
"j.j.f...x U U G H H F H H H D D P D G H H H H G D U P Z W 1.f.j.",
"w.j.j. .N K G G G H H H H F H G G G L H H H G G G G P m Q :.j.q.",
"q.j.f.@.x K L G U G G G D F H G L G H H F F U D G G G m Q :.k.0.",
"e.f.j.o.b D H H D G G P F H H H H H H D D D D U H G D M ! :.f.j.",
"e.f.w.*.S c b b N N n n b b N N b b b b b x N b b B b v E 6.f.j.",
"f.j.w.;.&...O.$.@.@.@...@.@.O.&.O.@.o...o.@.&.O.X.O.@.@.*.j.r.j.",
"6.j.;.w.f.f.j.j.j.j.f.f.f.j.j.j.j.j.j.f.j.j.j.j.j.j.f.j.j.j.j.j."
};
